<svg height="512pt" viewBox="-6 0 512 512" width="512pt" xmlns="http://www.w3.org/2000/svg"><path d="m397.8125 0h-177.683594c-4.5 0-8.144531 3.652344-8.144531 8.144531 0 4.496094 3.644531 8.140625 8.144531 8.140625h177.683594c47.515625 0 86.175781 38.660156 86.175781 86.175782v186.292968c0 33.398438-19.097656 62.417969-46.945312 76.710938-3.585938-5.503906-8.226563-10.429688-13.621094-14.414063 26.464844-10.453125 45.226563-36.289062 45.226563-66.40625-.273438-190.152343.609374-179.3125-.785157-188.667969-.660156-4.449218-4.8125-7.511718-9.25-6.859374-4.449219.671874-7.523437 4.8125-6.863281 9.261718 1.125 7.417969.40625.671875.613281 186.265625 0 30.382813-24.726562 55.097657-55.109375 55.097657h-45.257812v-76.433594c0-27.476563-32.28125-42.652344-52.878906-23.960938-6.617188 6.003906-10.402344 14.546875-10.402344 23.421875v76.972657h-185.695313c-14.808593 0-28.703125-5.792969-39.136719-16.308594-3.164062-3.195313-8.316406-3.214844-11.511718-.050782-3.195313 3.167969-3.21875 8.316407-.050782 11.515626 13.507813 13.628906 31.511719 21.128906 50.699219 21.128906h150.324219c-9.636719 3.460937-16.671875 11.042968-19.410156 18.902344h-131.472656c-47.515626 0-86.175782-38.660157-86.175782-86.175782v-186.292968c0-47.515626 38.660156-86.175782 86.175782-86.175782h87.132812c4.496094 0 8.140625-3.644531 8.140625-8.140625 0-4.492187-3.644531-8.144531-8.140625-8.144531h-87.132812c-56.503907 0-102.460938 45.96875-102.460938 102.460938v186.292968c0 56.496094 45.957031 102.464844 102.460938 102.464844h130.542968c3.539063 18.117188 18.488282 30.339844 44.332032 64.195312 8.234374 10.300782 13.007812 10.175782 13.007812 16.59375v17.539063c0 12.386719 10.078125 22.453125 22.453125 22.453125h92.007813c12.378906 0 22.445312-10.066406 22.445312-22.453125.707031-17.910156-1.835938-22.371094 2.800781-27.085937 10.339844-10.496094 16.039063-24.328126 16.039063-38.976563-.484375-24.023437 1.292968-31.226563-2.21875-43.21875 33.429687-16.886719 56.402344-51.566406 56.402344-91.511719v-186.292968c0-56.492188-45.957032-102.460938-102.460938-102.460938zm-109.097656 356.027344c-.273438 1.382812.769531 3.695312-1.425782 4.835937-2.703124 1.324219-2.953124-1.839843-11.238281-4.835937zm141.089844 67.457031c0 10.339844-4.03125 20.125-11.347657 27.542969-4.835937 4.90625-7.492187 11.308594-7.492187 18.039062v20.480469c0 3.398437-2.757813 6.167969-6.160156 6.167969h-92.007813c-3.398437 0-6.167969-2.769532-6.167969-6.167969v-17.539063c0-7.535156-3.429687-14.660156-9.425781-19.535156-2.625-2.136718-5.015625-4.570312-7.132813-7.214844-29.859374-38.457031-39.34375-45.851562-41.214843-58.019531-2.171875-13.753906 14.832031-21.847656 26.007812-13.550781 6.230469 4.675781 14.707031 4.835938 20.621094 1.242188 10.980469-6.234376 9.382813-18.359376 9.515625-18.902344 0-11.238282 0-82.671875 0-93.257813 0-4.296875 1.84375-8.4375 5.058594-11.359375 10.058594-9.117187 25.652344-1.671875 25.652344 11.898438v85.054687c0 4.480469 3.644531 8.144531 8.144531 8.144531h46.628906c21.746094 0 39.320313 17.71875 39.320313 39.308594zm0 0"/><path d="m453.105469 75.792969c3.632812-2.667969 4.417969-7.757813 1.761719-11.378907-13.417969-18.304687-34.957032-29.226562-57.613282-29.226562h-294.234375c-39.371093 0-71.394531 32.023438-71.394531 71.394531 1.015625 184.304688-2.355469 181.179688 3.144531 199.050781 1.070313 3.5 4.296875 5.75 7.777344 5.75 5.460937 0 9.402344-5.292968 7.789063-10.535156-4.253907-13.835937-1.617188-6.921875-2.421876-194.265625 0-30.382812 24.722657-55.105469 55.105469-55.105469h294.234375c17.496094 0 34.117188 8.4375 44.472656 22.566407 2.664063 3.621093 7.753907 4.40625 11.378907 1.75zm0 0"/><path d="m119.796875 192.332031h-18.375c-4.488281 0-8.140625 3.652344-8.140625 8.140625v36.746094c0 4.5 3.652344 8.144531 8.140625 8.144531h18.375c14.300781 0 22.839844-9.363281 22.839844-25.039062-.246094-.832031 3.140625-27.992188-22.839844-27.992188zm6.554687 27.992188c0 8.753906-3.328124 8.753906-6.554687 8.753906h-10.230469v-20.460937h10.230469c3.949219 0 6.554687 0 6.554687 8.765624zm0 0"/><path d="m123.105469 119.765625h-37.664063c-11.949218 0-20.632812 7.136719-20.632812 16.96875v116.832031c0 9.570313 8.875 16.777344 20.632812 16.777344h40.789063c28.640625 0 45.058593-17.355469 45.058593-47.640625-.386718-2.089844 2.519532-22.394531-12.183593-34.3125 5.804687-6.796875 8.886719-16.273437 8.886719-27.777344 0-25.957031-16.367188-40.847656-44.886719-40.847656zm3.125 134.289063c-35.484375-.523438-42.414063 1.015624-45.136719-1.027344v-115.957032c2.972656-1.996093 8.582031-.5 42.011719-1.019531 25.34375 0 28.601562 13.132813 28.601562 24.5625 0 7.625-1.863281 17.527344-10.71875 21.375-6.683593 2.882813-6.464843 12.507813.367188 15.085938 9.058593 3.421875 13.648437 7.714843 13.648437 21.773437-.800781 3.082032 5.074219 35.207032-28.773437 35.207032zm0 0"/><path d="m101.421875 186.578125h19.289063c24.78125 0 24.820312-41.824219 0-41.824219h-19.289063c-4.488281 0-8.140625 3.644532-8.140625 8.144532v25.539062c0 4.488281 3.652344 8.140625 8.140625 8.140625zm8.144531-25.539063h11.144532c3.019531 0 3.113281 9.253907 0 9.253907h-11.144532zm0 0"/><path d="m189.542969 136.550781v83.394531c0 32.738282 19.847656 51.507813 54.4375 51.507813 34.597656 0 54.445312-18.769531 54.445312-51.507813v-83.394531c0-22.5-44.949219-22.511719-44.949219 0v83.394531c0 8.5625-3.480468 10.230469-9.496093 10.230469-6.007813 0-9.488281-1.667969-9.488281-10.230469v-83.394531c0-22.503906-44.949219-22.511719-44.949219 0zm54.4375 109.910157c16.140625 0 25.78125-9.902344 25.78125-26.515626v-82.765624c2.679687-1.449219 9.417969-1.585938 12.378906.082031v82.683593c0 23.371094-12.847656 35.21875-38.160156 35.21875-25.671875 0-38.152344-11.519531-38.152344-35.21875v-82.765624c2.679687-1.449219 9.417969-1.585938 12.378906.082031v82.683593c0 16.613282 9.636719 26.515626 25.773438 26.515626zm0 0"/><path d="m396.519531 253.382812v-45.191406c40.523438-67.503906 38.945313-63.296875 38.945313-68.515625 0-12.816406-16.328125-19.910156-27.617188-19.910156-9.199218 0-13.097656 5.179687-15.429687 9.597656l-18.394531 34.019531c-19.238282-33.214843-19.257813-43.617187-33.964844-43.617187-11.289063 0-27.617188 7.09375-27.617188 19.910156 0 6.855469.820313 3.5625 39.128906 68.515625v45.191406c0 22.660157 44.949219 22.632813 44.949219 0zm-67.261719-113.699218c2.515626-2.117188 8.113282-3.894532 11.238282-3.613282.699218.917969.511718.855469 26.402344 48.28125 3.078124 5.648438 11.222656 5.671876 14.3125-.019531 27.351562-50.546875 25.777343-47.703125 26.128906-48.261719 3.507812-.269531 8.953125 1.617188 11.320312 3.625l-36.460937 60.695313c-3.492188 5.476563-1.367188 8.960937-1.964844 52.320313-2.804687 1.789062-9.574219 1.789062-12.378906 0-.621094-45.113282 1.464843-46.953126-1.964844-52.328126zm0 0"/></svg>