<?xml version="1.0" encoding="iso-8859-1"?>
<!-- Generator: Adobe Illustrator 19.0.0, SVG Export Plug-In . SVG Version: 6.00 Build 0)  -->
<svg xmlns="http://www.w3.org/2000/svg" xmlns:xlink="http://www.w3.org/1999/xlink" version="1.1" id="Layer_1" x="0px" y="0px" viewBox="0 0 512 512" style="enable-background:new 0 0 512 512;" xml:space="preserve" width="512px" height="512px">
<g>
	<g>
		<path d="M506.766,281.737c-6.316-15.253-17.709-23.652-32.077-23.652c-14.048,0-24.585,4.564-32.334,11.045v-20.875    c0-5.114-4.145-9.26-9.26-9.26H321.599v-31.537v-0.004v-38.657c0-5.114-4.145-9.26-9.26-9.26h-92.715    c0.825-3.634,1.273-7.358,1.273-11.113c0-24.564-17.756-45.047-41.106-49.32c-1.49-15.003-9.603-36.663-33.748-44.712    c-4.856-1.62-10.097,1.005-11.713,5.857c-1.617,4.851,1.004,10.096,5.856,11.713c15.532,5.177,19.792,18.949,20.931,27.248    c-23.057,4.505-40.513,24.854-40.513,49.215c0,3.756,0.448,7.481,1.273,11.113H39.089C17.535,159.538,0,177.073,0,198.627v250.197    c0,5.114,4.145,9.26,9.26,9.26h29.806h0.001h189.711v-0.021c0.157,0.009,0.311,0.023,0.47,0.023h153.845    c5.115,0,9.26-4.146,9.26-9.26v-4.193c0-15.288,5.262-29.948,14.687-41.675c5.195,7.605,11.521,12.201,18.901,13.706    c1.814,0.37,3.631,0.547,5.46,0.547c17.876-0.002,36.42-16.939,55.391-35.91C511.567,356.526,517.771,308.302,506.766,281.737z     M170.074,338.354H48.327v-42.213h121.661v39.036C169.988,336.241,170.031,337.298,170.074,338.354z M173.073,356.874    c1.883,6.523,4.596,12.77,8.088,18.584H48.327v-18.584H173.073z M179.248,238.997v-0.001c-5.115,0-9.26,4.146-9.26,9.26v29.368    H48.327v-60.908h254.752v22.281H179.248z M170.742,116.79c17.443,0,31.634,14.191,31.634,31.634c0,3.814-0.705,7.578-2.031,11.113    h-59.194c-1.327-3.535-2.031-7.299-2.031-11.113C139.12,130.981,153.306,116.79,170.742,116.79z M29.808,207.455v232.109H18.519    V198.627c0-11.342,9.229-20.57,20.57-20.57h263.989v20.138H39.067C33.952,198.195,29.808,202.341,29.808,207.455z M48.327,439.564    v-45.587h148.302c0.128,0.112,0.248,0.233,0.378,0.346c13.322,11.539,21.438,27.811,22.766,45.242H48.327z M403.212,380.324    c-17.388,15.061-27.869,36.428-29.227,59.242H238.358c-1.358-22.815-11.839-44.181-29.227-59.242    c-13.106-11.352-20.623-27.807-20.623-45.146v-77.663h235.328v77.663C423.836,352.516,416.318,368.972,403.212,380.324z     M473.697,368.204c-9.766,9.766-32.602,32.648-44.055,30.313c-3.724-0.759-6.821-4.695-9.188-9.083    c13.983-14.517,21.901-33.914,21.901-54.257v-30.125c0.73-4.62,5.782-28.448,32.334-28.448c2.45,0,9.907,0,14.969,12.219    C498.071,309.136,492.828,349.075,473.697,368.204z" fill="#FFFFFF"/>
	</g>
</g>
<g>
</g>
<g>
</g>
<g>
</g>
<g>
</g>
<g>
</g>
<g>
</g>
<g>
</g>
<g>
</g>
<g>
</g>
<g>
</g>
<g>
</g>
<g>
</g>
<g>
</g>
<g>
</g>
<g>
</g>
</svg>
